<svg viewBox="0 0 1575 1180" fill="none" xmlns="http://www.w3.org/2000/svg">
        <path d="M865.922 0.243036C865.741 0.425036 863.266 0.778539 860.422 1.02804C848.779 2.05104 847.879 2.33853 837 8.51003C834.938 9.68003 831.777 11.4645 829.977 12.475C828.176 13.4855 825.701 14.9985 824.477 15.8375C823.252 16.6765 821.294 17.8485 820.125 18.442C816.192 20.4385 803.425 28.8365 795.524 34.625C793.365 36.2065 791.354 37.5 791.055 37.5C790.756 37.5 789.282 36.4315 787.78 35.125C783.873 31.727 782.626 30.8365 779.25 29.036C777.6 28.1555 775.125 26.782 773.75 25.983C772.375 25.184 769.365 23.9385 767.061 23.215C763.523 22.104 762.281 21.9425 759.061 22.1755C750.187 22.818 746.155 23.3735 744.65 24.162C743.77 24.623 742.645 25.0035 742.15 25.0075C740.909 25.0175 737.209 26.344 734.504 27.749C733.264 28.393 731.238 29.2035 730 29.5505C728.763 29.8975 726.463 30.8155 724.89 31.5905C723.316 32.366 721.575 33 721.021 33C720.467 33 717.54 34.2535 714.517 35.786C709.178 38.4915 703.523 42.543 695.209 49.6185C693.032 51.4715 689 54.6355 686.25 56.6505C679.441 61.6395 672.383 67.5875 668.631 71.4985L665.511 74.75L661.131 75.068C656.544 75.4005 651.8 76.1065 648 77.021C645.748 77.563 643.538 78.0165 638.628 78.9435C637.186 79.216 635.505 79.79 634.892 80.2195C634.279 80.6485 633.18 81 632.45 81C630.999 81 629.156 81.686 623.606 84.29C621.602 85.2305 619.844 86 619.701 86C619.557 86 617.527 86.9 615.19 88C612.853 89.1 610.732 90 610.477 90C610.222 90 608.267 90.8995 606.132 91.999C603.997 93.0985 601.966 93.9985 601.619 93.999C599.995 94.0015 582.011 103.654 578.319 106.505C571.727 111.595 556.602 125.607 553.25 129.73C550.288 133.374 546.687 138.664 545.279 141.442C544.627 142.729 543.07 145.308 541.821 147.172C540.571 149.036 539.409 150.997 539.24 151.53C538.999 152.289 538.736 152.394 538.026 152.014C536.764 151.338 533.264 150.25 529.984 149.514C525.228 148.446 512.207 149.648 509.431 151.411C508.507 151.998 506.963 152.846 506 153.296C501.226 155.528 500.099 156.134 498.25 157.464C497.15 158.256 494.788 160.477 493 162.399C489.028 166.671 488.087 167.854 483.767 174C483.09 174.963 481.855 176.712 481.023 177.886C480.19 179.061 479.041 180.941 478.468 182.063C477.531 183.9 477.295 184.066 476.089 183.731C472.374 182.697 457.31 184.217 454.088 185.95C451.063 187.577 446.022 191.483 441.47 195.726C439.391 197.664 435.466 201.163 432.748 203.5C425.237 209.96 412.701 222.386 410.346 225.706C409.194 227.331 407.337 229.693 406.222 230.956C404.063 233.397 400.317 238.431 398.887 240.812C398.412 241.603 397.236 243.263 396.274 244.5C390.247 252.254 385.175 263.189 383.983 271C383.753 272.512 383.289 274.762 382.954 276C381.634 280.867 382.234 296.579 384.022 304C384.32 305.237 384.769 307.487 385.019 309C385.807 313.759 386.306 315.701 387.166 317.35C387.625 318.23 388 319.756 388 320.741C388 321.726 388.369 323.368 388.819 324.391C389.27 325.413 389.814 327.262 390.028 328.5C390.683 332.283 391.498 335.078 392.267 336.176C393.848 338.433 392.965 341.891 389.758 346C388.792 347.237 387.525 349.262 386.942 350.5C385.385 353.806 383.592 357.447 382.264 360C381.62 361.237 380.723 363.037 380.271 364C379.819 364.962 378.796 366.875 377.996 368.25C377.197 369.625 376.192 371.875 375.764 373.25C375.017 375.648 373.124 379.987 368.943 388.882C367.874 391.155 366.997 393.405 366.993 393.882C366.983 395.09 365.713 398.613 364.24 401.52C363.558 402.866 363 404.433 363 405.003C363 405.573 362.58 406.875 362.067 407.895C361.554 408.915 360.859 410.987 360.523 412.5C359.968 414.999 358.661 419.822 357.464 423.786C357.209 424.63 357 425.95 357 426.718C357 428.262 354.431 431.428 345.777 440.547C343.012 443.461 338.725 448.152 336.25 450.972C326.708 461.843 318.427 470.702 306.78 482.5C300.129 489.237 293.73 495.924 292.56 497.359C289.894 500.629 281.14 508.339 276.043 511.905C275.379 512.37 273.551 513.875 271.981 515.25C267.482 519.189 261.954 523.837 259.5 525.742C257.259 527.482 251.938 532.046 245.501 537.75C243.639 539.4 240.832 541.762 239.262 543C237.692 544.237 234.675 546.883 232.557 548.88C230.44 550.877 228.154 552.881 227.478 553.334C226.803 553.786 224.094 556.203 221.459 558.703C218.824 561.204 212.54 567.075 207.495 571.75C202.449 576.425 197.375 581.232 196.218 582.432C194.011 584.722 193.287 585.45 188.93 589.76C187.456 591.218 185.329 593.387 184.204 594.58C182.392 596.502 177.801 600.693 166.49 610.75C164.634 612.4 161.846 614.762 160.294 616C156.096 619.347 152.548 622.262 149.784 624.634C148.428 625.797 146.278 627.425 145.006 628.25C141.868 630.285 140.028 631.719 136.019 635.25C134.145 636.9 131.107 639.487 129.266 641C127.426 642.512 124.441 644.987 122.633 646.5C118.378 650.06 92.516 675.991 87 682.229C84.6625 684.872 81.0625 688.906 79 691.193C76.9375 693.479 73.5625 697.329 71.5 699.747C69.4375 702.166 66.175 705.887 64.25 708.017C58.0275 714.902 51.4625 722.643 49.8475 725C49.3765 725.687 48.2065 727.262 47.248 728.5C46.2895 729.737 44.942 731.537 44.2545 732.5C43.5665 733.462 42.4965 734.954 41.877 735.814C41.257 736.674 39.236 739.599 37.3855 742.314C35.535 745.029 33.3075 748.262 32.435 749.5C31.5625 750.737 30.533 752.425 30.148 753.25C29.7625 754.075 28.679 755.987 27.741 757.5C25.895 760.475 25.139 761.988 21.4985 770C16.2195 781.616 13.7015 788.062 12.415 793.25C12.1425 794.35 11.6865 795.925 11.4025 796.75C8.08697 806.366 4.99597 816.49 4.98997 817.75C4.98747 818.3 4.62597 819.762 4.18697 821C3.74797 822.237 3.20297 824.487 2.97597 826C2.74947 827.512 2.31847 829.762 2.01897 831C0.395966 837.702 0.336466 839.745 0.162466 894.739C-0.0100336 949.231 0.00496643 950.284 0.993467 953.343C1.54697 955.057 1.99997 957.042 1.99997 957.754C1.99997 958.467 2.37547 959.769 2.83447 960.65C3.29347 961.53 3.84547 963.037 4.06147 964C4.27747 964.962 4.65297 966.65 4.89547 967.75C5.13797 968.85 5.93597 970.924 6.66797 972.358C7.40047 973.793 7.99997 975.436 7.99997 976.008C7.99997 977.169 8.90397 979.077 10.722 981.756C11.388 982.737 12.3315 984.6 12.8185 985.895C13.3055 987.19 14.428 989.291 15.3125 990.563C16.197 991.836 17.4935 994.007 18.1935 995.388C19.642 998.247 22.318 1002.33 23.034 1002.77C23.298 1002.93 23.969 1003.96 24.524 1005.05C25.0795 1006.14 26.595 1008.24 27.892 1009.72C29.189 1011.21 31.0375 1013.48 32 1014.78C36.7995 1021.26 51.908 1036.96 57.7185 1041.5C59.301 1042.74 61.418 1044.43 62.423 1045.27C66.0595 1048.29 67.476 1049.3 76.825 1055.54C84.5745 1060.72 96.764 1066.6 104.75 1069.02C108.08 1070.03 109.219 1070.39 112.375 1071.47C113.131 1071.73 114.762 1072.19 116 1072.51C118.588 1073.16 127.529 1075.82 129.75 1076.59C135.849 1078.71 144.813 1081.52 147.25 1082.08C148.35 1082.34 150.037 1082.75 151 1083C156.788 1084.5 160.52 1085.19 167.25 1085.99C169.45 1086.25 172.375 1086.71 173.75 1087C177.752 1087.86 194.527 1089.6 199 1089.63C204.121 1089.66 218.736 1088.58 221 1088.01C222.237 1087.69 224.262 1087.26 225.5 1087.04C226.737 1086.83 229.325 1086.08 231.25 1085.38C240.593 1081.98 242.304 1081.31 243 1080.73C243.412 1080.39 244.908 1079.53 246.324 1078.82C250.55 1076.71 253.414 1074.55 254.951 1072.34C255.748 1071.19 257.105 1069.58 257.966 1068.77C259.761 1067.07 262 1063.46 262 1062.27C262 1061.82 262.472 1060 263.049 1058.21C264.155 1054.79 264.17 1050.21 263.099 1043.25C262.611 1040.08 259.231 1032.87 256.536 1029.25C255.718 1028.15 253.761 1025.34 252.188 1023C250.615 1020.66 248.863 1018.23 248.296 1017.59C247.179 1016.34 245.406 1013.22 240.288 1003.5C238.477 1000.06 236.802 996.912 236.567 996.5C236.331 996.087 235.432 994.287 234.571 992.5C233.709 990.712 232.806 988.912 232.565 988.5C232.045 987.612 229.513 981.823 228.041 978.157C226.65 974.693 226.632 969.242 228 965.5C228.55 963.995 229 962.363 229 961.873C229 960.703 233.786 951.174 235.34 949.25C236.778 947.469 239.173 944.315 241.25 941.466C242.075 940.334 243.675 938.36 244.805 937.079C245.936 935.798 247.451 933.803 248.174 932.645C249.198 931.003 253.622 925.888 257.908 921.39C258.237 921.044 261.72 918.173 265.121 915.443C266.017 914.724 267.65 913.648 268.75 913.052C272.497 911.021 275.748 908.914 277.25 907.541C278.075 906.787 279.988 905.351 281.5 904.349C283.013 903.347 285.928 900.834 287.978 898.764C290.028 896.694 291.889 895 292.113 895C292.338 895 293.473 894.149 294.636 893.109C295.799 892.068 297.65 890.645 298.75 889.946C303.766 886.755 304.966 885.815 308.237 882.516C310.154 880.582 311.86 879 312.028 879C312.195 879 313.073 880.144 313.979 881.543C314.886 882.942 316.443 885.062 317.439 886.255C318.435 887.448 319.813 889.25 320.5 890.26C325.118 897.043 355.363 928.562 368.949 940.75C377.952 948.825 381.66 952.04 384.237 954C385.503 954.962 387.754 956.762 389.241 958C390.727 959.237 393.097 961.15 394.506 962.25L397.07 964.25L396.728 969.75C395.965 982.033 396.555 1005.24 397.987 1019.25C398.886 1028.05 399.503 1033.8 399.917 1037.25C400.318 1040.6 401.419 1043.58 402.497 1044.25C402.774 1044.42 403 1045.14 403 1045.85C403 1049.71 411.963 1058.71 418.333 1061.25C420.042 1061.93 421.706 1062.03 427.583 1061.85C438.357 1061.52 439.07 1061.26 449.858 1053.87C453.374 1051.46 456.813 1049.11 457.5 1048.65C458.188 1048.19 459.538 1047.11 460.5 1046.24C461.463 1045.38 463.488 1043.81 465 1042.76C467.81 1040.81 469.276 1039.65 474.448 1035.25C476.066 1033.87 478.244 1032.19 479.289 1031.5C480.333 1030.81 483.573 1027.95 486.487 1025.13L491.786 1020.02L500.936 1024.51C505.968 1026.98 510.296 1029 510.554 1029C510.812 1029 512.812 1029.9 515 1031C517.188 1032.1 519.532 1033 520.209 1033C520.887 1033 521.582 1033.23 521.756 1033.51C522.223 1034.27 526.738 1036.46 529.941 1037.48C531.486 1037.98 534.438 1039.17 536.5 1040.14C545.222 1044.22 548.375 1045.46 559 1049C560.788 1049.59 562.925 1050.31 563.75 1050.59C564.575 1050.88 566.6 1051.55 568.25 1052.09C573.299 1053.75 574.17 1054.06 576.5 1055C577.738 1055.5 579.482 1056.15 580.375 1056.45C581.269 1056.75 582.732 1057.25 583.625 1057.55C584.519 1057.86 586.544 1058.53 588.125 1059.05C593.195 1060.72 597.18 1062.07 599.953 1063.05C601.439 1063.57 603.127 1064 603.703 1064.01C604.279 1064.01 605.763 1064.37 607 1064.81C608.238 1065.25 610.488 1065.8 612 1066.02C613.513 1066.25 615.763 1066.68 617 1066.99C619.885 1067.69 625.596 1068.49 631 1068.96C634.851 1069.28 642.164 1070.89 648.75 1072.85C650.125 1073.26 652.488 1073.78 654 1074.01C655.513 1074.25 657.763 1074.68 659 1074.99C661.273 1075.55 665.523 1076.13 673.75 1077.01C676.225 1077.27 679.375 1077.74 680.75 1078.05C682.125 1078.36 686.4 1078.8 690.25 1079.02C694.1 1079.25 700.288 1079.69 704 1079.99C707.713 1080.29 716.825 1080.63 724.25 1080.76C731.675 1080.88 740.045 1081.24 742.851 1081.56C746.919 1082.02 748.265 1082.01 749.502 1081.5C750.751 1080.98 751.421 1080.98 752.946 1081.48C754.09 1081.86 755.911 1081.99 757.545 1081.81C765.199 1080.97 770.341 1080.49 771.125 1080.54C774.271 1080.73 780.461 1080.57 784.577 1080.19L789.404 1079.75L794.327 1086.45C797.035 1090.13 800.718 1094.97 802.513 1097.2C804.307 1099.43 806.286 1101.97 806.909 1102.86C807.656 1103.92 809.592 1105.24 812.573 1106.73C816.939 1108.92 817.263 1109 821.599 1109C826.848 1109 830.415 1108.08 833.25 1106C834.35 1105.19 836.038 1103.99 837 1103.33C838.891 1102.03 843.19 1097.47 846 1093.78C846.963 1092.52 848.538 1090.52 849.5 1089.35C851.215 1087.25 852.04 1085.77 853.731 1081.75C854.193 1080.65 855.467 1078.26 856.561 1076.43C858.636 1072.96 858.689 1072.93 863.5 1072.01C868.141 1071.11 870.451 1070.41 871.028 1069.72C871.355 1069.32 872.33 1069 873.194 1069C874.057 1069 875.886 1068.57 877.257 1068.05C879.884 1067.04 880.903 1066.69 885.75 1065.09C887.4 1064.55 889.425 1063.88 890.25 1063.59C891.075 1063.31 893.775 1062.4 896.25 1061.59C898.725 1060.77 902.663 1059.38 905 1058.5C909.342 1056.88 913.304 1055.52 917.75 1054.13C919.125 1053.71 920.605 1053.05 921.04 1052.68C921.474 1052.3 922.264 1052 922.797 1052C923.329 1052 924.999 1051.53 926.507 1050.95C928.016 1050.37 931.5 1049.1 934.25 1048.13C937 1047.16 939.558 1046.12 939.933 1045.82C940.309 1045.53 941.322 1045.02 942.183 1044.69C947.864 1042.56 949.401 1041.89 950.605 1041C951.35 1040.45 952.199 1040 952.491 1040C953.092 1040 958.465 1037.21 965.5 1033.24C968.113 1031.77 971.038 1030.19 972 1029.73C977.657 1027.02 979.832 1025.95 980.5 1025.55C980.913 1025.3 982.713 1024.5 984.5 1023.77C986.288 1023.04 988.088 1022.23 988.5 1021.97C988.913 1021.71 990.038 1021.13 991 1020.69C993.739 1019.44 998.673 1017.05 999.5 1016.57C999.913 1016.34 1002.16 1015.19 1004.5 1014.03C1012.68 1009.96 1019.43 1006.24 1020.59 1005.18C1021.23 1004.59 1022.76 1003.61 1024 1003C1025.24 1002.39 1027.15 1001.22 1028.25 1000.42C1030.38 998.855 1033.72 996.649 1037.46 994.328C1038.72 993.546 1040.2 992.502 1040.75 992.008C1041.3 991.514 1042.92 990.523 1044.36 989.805C1045.79 989.087 1048.11 987.486 1049.5 986.247C1050.9 985.008 1053.32 983.343 1054.9 982.547C1056.47 981.751 1058.31 980.493 1059 979.751C1059.69 979.009 1061.08 977.979 1062.08 977.462C1064.56 976.193 1068.21 973.705 1069.01 972.743C1069.36 972.312 1071.59 970.689 1073.95 969.137C1076.32 967.584 1079.4 965.287 1080.81 964.032C1082.21 962.777 1084.2 961.187 1085.23 960.5C1087.95 958.685 1097.15 950.809 1106.26 942.5C1108.53 940.437 1113.61 935.825 1117.56 932.25C1121.52 928.675 1126.21 924.181 1128 922.264C1133.15 916.74 1136.36 913.602 1142.25 908.345C1153 898.758 1160.74 891.687 1165.46 887.15C1168.1 884.62 1171.15 881.892 1172.25 881.086C1175.59 878.643 1187.63 865.848 1196.87 854.935C1203.31 847.327 1207.49 842.52 1209.85 840.011C1212.9 836.768 1211.81 835.993 1218.68 846.25C1224.2 854.491 1228.57 861.561 1230.75 865.786C1231.61 867.456 1232.88 869.594 1233.57 870.536C1234.88 872.318 1244.36 891.229 1247.62 898.551C1249.61 903.04 1251.58 908.196 1252.85 912.25C1253.28 913.625 1254.28 916.775 1255.07 919.251C1255.86 921.727 1256.5 924.314 1256.51 925.001C1256.51 925.688 1256.87 927.375 1257.3 928.75C1258.66 933.03 1259.2 939.331 1259.2 951C1259.2 965.447 1258.26 972.38 1254.75 983.768C1253.45 988.002 1250.41 995.445 1248.64 998.75C1244.2 1007.01 1242.91 1009.2 1240.94 1011.77C1239.68 1013.41 1238.02 1015.76 1237.24 1017C1234.75 1020.96 1219.14 1039.83 1217.64 1040.68C1217.22 1040.92 1214.82 1043.2 1212.31 1045.75C1205.1 1053.07 1196.82 1059.69 1187.28 1065.75C1185.55 1066.85 1183.37 1068.33 1182.44 1069.03C1181.51 1069.74 1178.84 1071.17 1176.5 1072.22C1174.16 1073.27 1171.13 1074.65 1169.75 1075.3C1168.38 1075.95 1165.86 1076.92 1164.17 1077.45C1162.47 1077.99 1160.4 1078.79 1159.57 1079.22C1158.73 1079.65 1157.24 1080 1156.26 1080C1155.27 1080 1153.63 1080.36 1152.61 1080.8C1150.63 1081.65 1145.07 1082.22 1131 1083.04C1118.86 1083.74 1111.1 1084.58 1103.5 1086.01C1101.99 1086.3 1099.51 1086.73 1098 1086.96C1096.49 1087.2 1093.52 1087.98 1091.41 1088.7C1089.3 1089.41 1087.22 1090 1086.8 1090C1085.09 1090 1066.87 1098.85 1063.46 1101.34C1059.9 1103.93 1055.51 1108.34 1052.71 1112.12C1049.1 1117.01 1046.64 1125.66 1046.56 1133.75C1046.51 1140.09 1047.87 1145.62 1050.45 1149.51C1055.11 1156.54 1068.57 1167.23 1080.1 1173.05C1082.59 1174.31 1084.31 1174.98 1091.25 1177.41C1092.08 1177.7 1094.33 1178.41 1096.25 1178.99C1099.74 1180.04 1099.85 1180.05 1159.25 1179.86C1203.04 1179.72 1219.48 1179.51 1221.5 1179.07C1225.15 1178.27 1229.42 1177.56 1234 1176.98C1236.06 1176.72 1238.99 1176.27 1240.5 1175.98C1242.01 1175.69 1244.49 1175.25 1246 1175.01C1247.51 1174.76 1249.88 1174.32 1251.25 1174.03C1252.63 1173.74 1254.99 1173.27 1256.5 1172.98C1258.01 1172.69 1260.38 1172.24 1261.75 1171.96C1263.13 1171.69 1265.26 1171.28 1266.5 1171.06C1267.74 1170.83 1269.76 1170.28 1271 1169.83C1272.24 1169.38 1273.78 1169.01 1274.42 1169.01C1275.06 1169 1277.65 1168.34 1280.17 1167.54C1282.69 1166.73 1287.11 1165.37 1290 1164.5C1295.75 1162.78 1295.91 1162.73 1303.5 1160C1310.28 1157.56 1311.34 1157.2 1313.75 1156.51C1314.85 1156.2 1316.76 1155.53 1318 1155.03C1319.24 1154.53 1321.49 1153.62 1323 1153.01C1324.51 1152.4 1327.16 1151.25 1328.88 1150.45C1330.61 1149.65 1332.6 1149 1333.3 1149C1334.01 1149 1336.65 1148.35 1339.17 1147.55C1341.69 1146.74 1344.65 1145.87 1345.75 1145.6C1346.85 1145.33 1348.43 1144.87 1349.25 1144.59C1350.08 1144.3 1353.79 1143.14 1357.5 1142C1368.74 1138.55 1376.11 1135.98 1379.1 1134.45C1380.21 1133.88 1382.38 1133.02 1383.93 1132.52C1385.48 1132.02 1388.1 1131 1389.75 1130.25C1391.4 1129.5 1395.11 1127.8 1398 1126.48C1400.89 1125.17 1404.26 1123.68 1405.49 1123.17C1406.72 1122.66 1408.44 1121.77 1409.31 1121.17C1410.18 1120.58 1411.43 1119.94 1412.07 1119.74C1412.72 1119.54 1413.59 1119.1 1414 1118.75C1414.41 1118.4 1415.3 1117.95 1415.97 1117.74C1416.64 1117.54 1418.25 1116.63 1419.54 1115.72C1420.82 1114.82 1423 1113.51 1424.37 1112.82C1425.74 1112.12 1427.54 1110.98 1428.38 1110.28C1429.21 1109.57 1430.04 1109 1430.22 1109C1430.53 1109 1435.96 1105.46 1439.02 1103.25C1439.79 1102.7 1441.84 1101.26 1443.58 1100.05C1445.32 1098.84 1447.58 1097.15 1448.58 1096.3C1449.59 1095.45 1451.48 1093.96 1452.78 1093C1454.07 1092.04 1456.2 1090.35 1457.5 1089.25C1458.79 1088.15 1461.05 1086.35 1462.5 1085.25C1463.95 1084.15 1466.2 1082.35 1467.49 1081.25C1468.77 1080.15 1470.79 1078.57 1471.97 1077.75C1473.15 1076.92 1475.27 1075.24 1476.68 1074C1478.1 1072.76 1480.49 1070.86 1482 1069.78C1483.51 1068.7 1486.13 1066.56 1487.82 1065.03C1492.4 1060.88 1502.67 1051.66 1506.52 1048.25C1508.39 1046.6 1512.33 1043.11 1515.29 1040.5C1527.88 1029.37 1540.56 1015.86 1546.5 1007.25C1547.19 1006.25 1548.27 1004.78 1548.91 1003.98C1551.51 1000.72 1563 978.756 1563 977.05C1563 976.522 1563.68 974.663 1564.5 972.92C1565.32 971.176 1566 969.137 1566 968.388C1566 967.639 1566.43 966.064 1566.96 964.888C1568.9 960.569 1570 957.539 1570 956.518C1570 955.942 1570.68 953.423 1571.5 950.92C1572.33 948.416 1573 945.938 1573 945.413C1573 944.888 1573.45 943.059 1574.01 941.347C1574.99 938.307 1575.01 937.195 1574.84 892.743C1574.72 861.517 1574.49 846.466 1574.11 844.75C1573.33 841.305 1572.59 837.715 1572.03 834.75C1571.77 833.375 1571.31 831.237 1571 830C1570.69 828.762 1570.26 826.737 1570.03 825.5C1569.81 824.262 1569.25 822.012 1568.78 820.5C1568.32 818.987 1567.73 817.059 1567.47 816.214C1567.21 815.37 1567 814.067 1567 813.319C1567 812.572 1566.55 811.078 1566 810C1565.45 808.922 1565 807.448 1565 806.726C1565 805.21 1561.48 793.807 1559.12 787.695C1558.58 786.29 1557.99 784.344 1557.81 783.37C1557.62 782.397 1557.14 781.325 1556.74 780.989C1556.33 780.652 1556 779.899 1555.99 779.314C1555.98 777.993 1554.8 774.557 1553.45 771.897C1552.88 770.792 1551.99 768.518 1551.45 766.844C1550.92 765.169 1549.92 762.848 1549.24 761.686C1548.56 760.523 1548 759.221 1548 758.793C1548 758.365 1547.13 756.155 1546.06 753.882C1544.99 751.609 1542.77 746.825 1541.12 743.25C1536.89 734.092 1536.06 732.352 1535.57 731.5C1535.34 731.087 1533.56 727.375 1531.63 723.25C1527.42 714.269 1526.24 711.812 1525.04 709.5C1524.54 708.537 1521.25 701.9 1517.74 694.75C1514.23 687.6 1510.94 681.214 1510.43 680.559C1509.92 679.905 1509.28 678.555 1509.01 677.559C1508.75 676.564 1507.79 674.579 1506.89 673.148C1505.99 671.717 1504.58 669.385 1503.75 667.966C1502.93 666.547 1501.27 663.893 1500.08 662.068C1498.88 660.243 1497.36 657.673 1496.69 656.357C1496.01 655.041 1494.73 653.128 1493.83 652.107C1492.93 651.085 1491.48 649.112 1490.61 647.721C1489.73 646.33 1488.45 644.66 1487.76 644.009C1487.07 643.358 1486.5 642.625 1486.5 642.379C1486.5 641.885 1484.54 639.372 1480.75 634.999C1479.38 633.414 1477.13 630.71 1475.75 628.992C1474.38 627.274 1471.9 624.349 1470.25 622.491C1468.6 620.634 1465.23 616.806 1462.75 613.986C1460.28 611.166 1456.9 607.348 1455.25 605.5C1453.6 603.652 1451.35 600.966 1450.25 599.532C1449.15 598.098 1447.01 595.497 1445.5 593.753C1443.99 592.009 1442.08 589.644 1441.25 588.496C1440.43 587.348 1438.4 584.876 1436.75 583.002C1433.68 579.519 1430.5 575.7 1426.5 570.714C1425.26 569.171 1423.24 566.696 1422 565.213C1420.76 563.731 1418.85 561.377 1417.75 559.984C1416.65 558.591 1414.01 555.606 1411.88 553.351C1409.75 551.095 1408 549.059 1408 548.825C1408 548.59 1405.21 545.553 1401.79 542.075C1398.38 538.596 1394.58 534.507 1393.36 532.989C1392.13 531.471 1387.43 526.813 1382.9 522.638C1378.37 518.463 1372 512.168 1368.74 508.649C1365.47 505.129 1360.32 499.66 1357.28 496.494C1354.24 493.327 1348.49 487.164 1344.5 482.799C1340.51 478.433 1333.12 470.575 1328.08 465.337C1317.89 454.748 1318.49 455.884 1319.96 450.125C1320.26 448.956 1320.74 447.044 1321.04 445.875C1321.33 444.706 1321.77 442.512 1322 441C1322.23 439.487 1322.68 437.237 1323 436C1323.32 434.762 1323.77 432.512 1324 431C1324.23 429.487 1324.67 427.237 1324.96 426C1325.26 424.762 1325.75 422.512 1326.05 421C1326.84 416.995 1327.38 414.526 1327.97 412.125C1328.26 410.956 1328.74 409.044 1329.03 407.875C1329.32 406.706 1329.67 404.512 1329.82 403C1329.97 401.487 1330.53 398.955 1331.08 397.372C1331.95 394.83 1332.04 393.546 1331.84 386.372C1331.59 377.814 1331.12 374.015 1329.77 369.5C1327.61 362.327 1326.28 358.653 1325.46 357.594C1324.96 356.958 1324.28 355.608 1323.95 354.594C1323.62 353.579 1322.88 352.075 1322.31 351.25C1320.63 348.803 1315.86 343.982 1314.32 343.173C1313.13 342.541 1312.95 342.209 1313.23 341.086C1315.09 333.583 1315.66 326.791 1315.67 312C1315.68 295 1314.95 288.596 1312.68 285.961C1312.31 285.527 1312 284.927 1312 284.627C1312 283.677 1310.03 279.455 1308.87 277.906C1301.73 268.405 1295.94 266.066 1277.5 265.233C1274.89 265.115 1271.79 265.014 1270.61 265.009C1269.01 265.003 1268.4 264.777 1268.2 264.125C1267.31 261.291 1258.88 243.455 1256.56 239.5C1256.32 239.088 1255.48 237.296 1254.69 235.519C1253.9 233.741 1252.53 231.34 1251.66 230.182C1250.78 229.025 1249.68 227.329 1249.21 226.414C1248.73 225.499 1247.42 223.554 1246.3 222.092C1244.25 219.437 1242.69 217.323 1241.1 215.043C1240.63 214.379 1239.13 212.566 1237.75 211.014C1236.38 209.461 1234.58 207.218 1233.75 206.029C1232.93 204.839 1230.9 202.349 1229.25 200.494C1227.6 198.639 1224.45 195.025 1222.25 192.463C1214.86 183.855 1195.38 164.995 1190.28 161.5C1186.18 158.689 1186 158.49 1186 156.689C1186 155.733 1185.67 154.314 1185.27 153.536C1184.25 151.564 1183.02 147.925 1183.01 146.861C1183 146.372 1182.33 144.635 1181.5 143C1180.68 141.366 1180 139.629 1179.99 139.14C1179.98 137.973 1178.73 134.42 1177.45 131.898C1176.88 130.793 1176.01 128.601 1175.51 127.027C1174.16 122.806 1170.9 116.594 1168.43 113.527C1164.65 108.845 1159.64 103.789 1157.51 102.497C1156.38 101.811 1154.62 100.608 1153.6 99.8235C1152.58 99.039 1150.29 97.657 1148.49 96.7525C1146.7 95.848 1143.69 94.066 1141.79 92.7925C1139.89 91.519 1137.75 90.359 1137.04 90.214C1136.33 90.069 1134.94 89.7125 1133.96 89.4215C1132.09 88.8725 1129.2 89.044 1124.5 89.9835C1122.99 90.286 1120.51 90.745 1119 91.0035C1114.84 91.7155 1112.48 92.285 1110 93.1765C1108.76 93.6215 1106.96 93.99 1106 93.996C1105.04 94.0015 1103.58 94.374 1102.75 94.823C1101.93 95.2725 1100.35 95.817 1099.25 96.0325C1095.45 96.7775 1092.79 97.554 1092.12 98.1095C1091.48 98.638 1088.95 99.243 1084.94 99.8285C1083.31 100.067 1083.08 99.9525 1082.57 98.6715C1082.27 97.8895 1081.81 96.9125 1081.56 96.5C1081.31 96.0875 1080.28 93.8375 1079.27 91.5C1078.25 89.1625 1077.22 86.9125 1076.96 86.5C1076.7 86.0875 1076.13 84.9625 1075.69 84C1072.64 77.3225 1067.49 67.8435 1066.07 66.303C1065.54 65.724 1064.53 64.091 1063.82 62.675C1063.11 61.2585 1061.68 59.082 1060.64 57.8375C1059.6 56.5935 1058.19 54.7495 1057.5 53.7395C1054.32 49.075 1036.47 30.0915 1033 27.6835C1032.04 27.0165 1030.54 25.954 1029.68 25.3225C1028.82 24.691 1026.51 23.6685 1024.55 23.051C1021.33 22.035 1020.29 21.952 1013.62 22.1815C1005.79 22.451 999.682 23.0845 996 24.0095C994.763 24.3205 992.288 24.7805 990.5 25.0315C988.713 25.2825 986.125 25.7085 984.75 25.978C983.375 26.2475 981.125 26.686 979.75 26.9525C978.375 27.219 976.238 27.691 975 28.0005C973.763 28.31 971.503 28.7445 969.98 28.965C968.456 29.186 966.498 29.734 965.629 30.183C964.761 30.6325 963.417 31 962.643 31C961.869 31 960.002 31.4735 958.493 32.0525C956.985 32.631 954.886 33.425 953.829 33.816C950.581 35.018 947.96 36.4925 942.605 40.13C939.774 42.0525 937.366 43.541 937.253 43.4375C937.141 43.3345 934.601 40.8875 931.609 38C928.617 35.1125 924.645 31.5125 922.782 30C920.919 28.4875 917.969 26.0125 916.226 24.5C914.483 22.9875 912.023 20.9625 910.759 20C909.496 19.0375 907.239 17.189 905.745 15.892C904.25 14.595 902.137 13.0795 901.048 12.524C899.959 11.969 898.934 11.2975 898.77 11.0325C897.521 9.01104 888.239 3.55303 883.25 1.90653C880.108 0.869033 866.589 -0.428464 865.922 0.243036ZM874 10.864C879.337 11.317 885.587 14.1565 892.294 19.175C900.66 25.4355 916.911 38.5485 921.676 42.8835C922.46 43.597 923.644 45.04 924.307 46.09C924.97 47.1405 925.769 48 926.081 48C926.394 48 929.112 50.4185 932.122 53.375L937.594 58.75L940.488 55.6215C944.237 51.5675 952.993 45.6045 957.815 43.8205C958.879 43.427 960.985 42.631 962.493 42.0525C964.002 41.4735 965.869 41 966.643 41C967.417 41 968.77 40.6205 969.65 40.1565C970.53 39.6925 972.488 39.136 974 38.9195C975.513 38.703 977.763 38.281 979 37.9815C980.238 37.6825 982.375 37.219 983.75 36.9525C985.125 36.686 987.375 36.24 988.75 35.962C990.125 35.6835 992.713 35.25 994.5 34.999C996.288 34.748 998.763 34.306 1000 34.0175C1002.69 33.3905 1003.73 33.2315 1010.25 32.4635C1015.84 31.805 1019.44 32.27 1023.5 34.1725C1028.84 36.678 1050.06 59.7715 1053.84 67.1945C1054.27 68.05 1055.35 69.7625 1056.23 71C1059.55 75.652 1067.09 90.5895 1072.02 102.25C1074.3 107.634 1075.15 108.777 1078.17 110.511C1081.18 112.235 1083.82 112.432 1085.56 111.064C1086.21 110.549 1087.65 110.002 1088.75 109.849C1093.24 109.224 1096.17 108.502 1096.94 107.831C1097.39 107.441 1098.43 106.993 1099.25 106.836C1100.08 106.679 1101.96 106.323 1103.44 106.046C1104.92 105.768 1106.51 105.194 1106.98 104.77C1107.45 104.347 1108.6 103.998 1109.54 103.995C1110.48 103.992 1112.38 103.631 1113.75 103.192C1118.81 101.578 1123.8 100.616 1129.4 100.175L1133.05 99.888L1136.46 102.152C1138.33 103.397 1141.25 105.118 1142.95 105.976C1146.04 107.536 1151.64 111.185 1154.01 113.188C1158.01 116.567 1163.29 124.926 1165.25 131C1165.74 132.513 1166.67 134.815 1167.32 136.117C1167.98 137.418 1168.84 139.781 1169.24 141.367C1169.65 142.953 1170.51 145.488 1171.16 147C1172.83 150.852 1174.98 157.33 1175.48 160C1176.25 164.089 1177.71 166.007 1182.49 169.25C1187.75 172.812 1199.73 183.493 1201.13 185.865C1201.68 186.785 1202.71 187.844 1203.44 188.22C1207.23 190.187 1231.54 219.273 1239.58 231.459C1243 236.645 1254.25 258.613 1256.72 264.935C1257.99 268.166 1258.5 270.268 1258.5 272.209V274.94L1264.38 275.208C1267.61 275.356 1273.83 275.588 1278.21 275.723C1284.32 275.911 1286.94 276.207 1289.46 276.996C1295.67 278.936 1297.11 279.821 1299.08 282.905C1300.08 284.47 1301.06 286.312 1301.26 287C1301.46 287.687 1302.2 289.375 1302.89 290.75C1304.7 294.358 1305.19 298.777 1305.2 311.75C1305.2 323.701 1304.74 328.965 1302.97 337C1302.4 339.612 1301.8 342.383 1301.65 343.157C1301.18 345.573 1302.85 348.363 1306.1 350.566C1307.69 351.65 1309 352.748 1309 353.006C1309 353.264 1309.65 353.811 1310.45 354.223C1312.29 355.177 1316.99 364.463 1318.56 370.25C1320.98 379.212 1321.69 383.103 1321.26 385.065C1321.06 385.992 1320.83 388.437 1320.76 390.5C1320.69 392.562 1320.38 395.036 1320.06 395.997C1319.75 396.958 1319.5 398.48 1319.5 399.381C1319.5 400.281 1319.07 402.645 1318.53 404.634C1318 406.623 1316.99 411.062 1316.29 414.5C1315.59 417.937 1314.54 422.55 1313.95 424.75C1313.37 426.95 1312.71 430.1 1312.48 431.75C1312.24 433.4 1311.8 435.65 1311.48 436.75C1311.17 437.85 1310.72 440.1 1310.49 441.75C1310.04 444.965 1308.46 451.352 1307.56 453.657C1306.76 455.687 1306.88 457.551 1307.91 459.119C1308.41 459.872 1313.3 465.171 1318.78 470.894C1324.26 476.618 1332.46 485.336 1337 490.268C1351.95 506.518 1365.05 520.159 1374.75 529.576C1383.11 537.698 1393.34 548.478 1394.52 550.406C1395.02 551.234 1395.86 552.047 1396.38 552.213C1396.91 552.379 1398.78 554.347 1400.54 556.586C1402.31 558.825 1404.88 561.802 1406.26 563.203C1407.63 564.604 1410.56 567.979 1412.76 570.703C1414.95 573.428 1418.63 577.928 1420.92 580.703C1423.21 583.478 1425.78 586.818 1426.63 588.125C1427.48 589.431 1428.35 590.5 1428.56 590.5C1428.97 590.5 1437.21 600.139 1440.82 604.836C1441.96 606.319 1446.01 611.057 1449.82 615.364C1468.03 635.942 1471.36 639.978 1483.08 655.64C1484.69 657.78 1486.48 660.48 1487.06 661.64C1487.65 662.8 1488.76 664.65 1489.52 665.75C1492.29 669.736 1498.15 679.796 1498.83 681.728C1499.21 682.817 1500.16 684.729 1500.94 685.978C1502.78 688.947 1512.93 709.165 1513.77 711.544C1514.12 712.557 1515.02 714.337 1515.75 715.5C1516.48 716.663 1517.38 718.432 1517.74 719.432C1518.1 720.432 1520.41 725.412 1522.88 730.5C1525.34 735.587 1528.88 743.012 1530.73 747C1532.58 750.987 1534.86 755.871 1535.8 757.851C1536.73 759.832 1537.5 761.778 1537.5 762.176C1537.5 762.573 1538.15 764.127 1538.94 765.629C1539.73 767.132 1540.77 769.573 1541.26 771.055C1541.74 772.537 1542.64 774.762 1543.26 776C1543.88 777.237 1544.84 779.712 1545.4 781.5C1545.96 783.287 1547.24 787 1548.23 789.75C1549.23 792.5 1550.4 795.875 1550.84 797.25C1551.28 798.625 1552.28 801.775 1553.07 804.251C1553.86 806.727 1554.5 809.272 1554.5 809.908C1554.5 810.544 1554.93 812.119 1555.45 813.407C1555.97 814.696 1556.66 817.1 1556.99 818.75C1557.31 820.4 1557.99 823.212 1558.5 825C1560.06 830.49 1561.69 838.108 1564.75 854.25C1564.91 855.075 1565.24 857.325 1565.5 859.25C1565.76 861.175 1566.21 863.762 1566.51 865C1566.81 866.237 1567.25 869.275 1567.5 871.75C1567.74 874.225 1568.07 876.7 1568.23 877.25C1568.38 877.8 1568.61 882.187 1568.74 887C1568.87 891.812 1569 896.2 1569.01 896.75C1569.03 897.3 1568.8 900.562 1568.49 904C1568.19 907.437 1567.85 911.937 1567.73 914C1567.61 916.062 1567.37 918.087 1567.19 918.5C1567.02 918.912 1566.71 920.825 1566.5 922.75C1565.89 928.596 1563.77 938.137 1560.95 947.75C1560.14 950.5 1559.48 953.096 1559.49 953.519C1559.5 953.941 1558.71 956.191 1557.74 958.519C1556.77 960.846 1555.83 963.65 1555.66 964.75C1555.48 965.85 1554.7 968.1 1553.92 969.75C1553.14 971.4 1552.5 973.146 1552.5 973.63C1552.5 974.523 1545.5 988.542 1542.08 994.504C1541.06 996.293 1539.27 999.014 1538.11 1000.55C1536.95 1002.08 1536 1003.49 1536 1003.67C1536 1003.85 1535.57 1004.5 1535.04 1005.12C1528.13 1013.28 1524.26 1017.61 1522.98 1018.57C1520.8 1020.22 1519.45 1021.6 1518.02 1023.61C1517.34 1024.57 1516.18 1025.78 1515.45 1026.3C1514.18 1027.2 1511.96 1029.17 1494.03 1045.3C1483.32 1054.93 1478.62 1059 1476.05 1060.87C1474.83 1061.75 1472.36 1063.71 1470.55 1065.21C1468.73 1066.72 1462.64 1071.6 1457 1076.06C1451.36 1080.52 1445.29 1085.33 1443.5 1086.75C1437.11 1091.82 1428.74 1097.49 1416.5 1105.01C1411.72 1107.94 1402.64 1112.59 1394.25 1116.39C1391.23 1117.76 1387.4 1119.5 1385.75 1120.25C1384.1 1121 1381.48 1122.02 1379.93 1122.52C1378.38 1123.02 1376.21 1123.88 1375.1 1124.45C1372.38 1125.84 1366.79 1127.82 1353.91 1131.96C1350.42 1133.08 1347.21 1134 1346.76 1134C1346.32 1134 1345.08 1134.45 1344 1135C1342.92 1135.55 1341.41 1136 1340.65 1136.01C1339.88 1136.01 1337.34 1136.68 1335 1137.5C1332.66 1138.32 1330.14 1138.99 1329.38 1138.99C1328.63 1139 1326.61 1139.65 1324.88 1140.45C1323.16 1141.25 1320.57 1142.37 1319.13 1142.95C1317.68 1143.53 1315.43 1144.44 1314.13 1144.97C1312.82 1145.51 1310.85 1146.2 1309.75 1146.51C1307.34 1147.2 1306.28 1147.56 1299.5 1150C1291.86 1152.75 1291.44 1152.89 1289.25 1153.46C1284.96 1154.57 1281.07 1155.69 1276.75 1157.07C1274.27 1157.85 1271.77 1158.5 1271.19 1158.5C1270.6 1158.5 1269.14 1158.85 1267.94 1159.27C1266.74 1159.69 1264.07 1160.37 1262 1160.77C1256.34 1161.87 1252.97 1162.54 1250.75 1163C1249.65 1163.23 1247.51 1163.65 1246 1163.93C1241.14 1164.83 1237.79 1165.46 1236.25 1165.75C1235.43 1165.91 1233.06 1166.26 1231 1166.52C1227.18 1167 1223.44 1167.6 1218.5 1168.51C1216.99 1168.79 1213.84 1169.24 1211.5 1169.5C1209.16 1169.76 1206.01 1170.22 1204.5 1170.51C1201.37 1171.12 1194.87 1171.81 1186.5 1172.42C1183.34 1172.65 1179.02 1173.22 1176.91 1173.69C1173.6 1174.41 1170.79 1174.49 1156.66 1174.29C1147.63 1174.16 1139.24 1174.04 1138 1174.03C1136.76 1174.02 1133.05 1174.14 1129.75 1174.29C1126.27 1174.45 1122.54 1174.35 1120.88 1174.04C1119.29 1173.74 1116.59 1173.25 1114.88 1172.95C1111.89 1172.42 1099.11 1168.55 1092.75 1166.24C1091.1 1165.64 1088.73 1164.78 1087.49 1164.33C1083.62 1162.92 1072.02 1155.72 1066.25 1151.15C1062.67 1148.31 1059.69 1144.2 1058.19 1140.02C1057.13 1137.06 1056.99 1136.17 1057.44 1135.17C1057.75 1134.5 1058 1132.48 1058 1130.69C1058 1126.36 1059.93 1120.67 1062.73 1116.77C1066.82 1111.06 1068.83 1109.78 1086.63 1101.56C1088.5 1100.7 1090.38 1100 1090.83 1100C1091.27 1100 1093.57 1099.35 1095.94 1098.55C1098.31 1097.75 1101.26 1096.97 1102.5 1096.8C1103.74 1096.64 1105.99 1096.27 1107.5 1095.98C1114.29 1094.69 1123.67 1093.73 1137 1092.97C1150.79 1092.18 1154.62 1091.76 1156.35 1090.84C1157.23 1090.38 1158.87 1090 1160 1090C1161.13 1090 1162.69 1089.67 1163.47 1089.26C1165.49 1088.22 1172.24 1086 1173.4 1086C1173.93 1086 1174.96 1085.54 1175.68 1084.97C1176.4 1084.4 1179.07 1082.93 1181.62 1081.7C1184.17 1080.47 1187.15 1078.8 1188.25 1077.99C1189.35 1077.18 1191.38 1075.83 1192.75 1074.99C1194.13 1074.15 1196.83 1072.34 1198.75 1070.97C1200.68 1069.59 1202.81 1068.1 1203.5 1067.64C1204.19 1067.18 1205.89 1065.78 1207.29 1064.53C1210.21 1061.9 1213.11 1059.63 1215.13 1058.37C1215.9 1057.89 1217 1056.71 1217.57 1055.75C1218.14 1054.79 1218.87 1054 1219.21 1054C1220.28 1054 1229.12 1044.41 1236.5 1035.25C1237.61 1033.87 1239.53 1031.51 1240.78 1030C1245.18 1024.66 1246.57 1022.82 1247.35 1021.29C1247.78 1020.44 1248.73 1019.04 1249.44 1018.17C1252.26 1014.75 1256.43 1007.93 1259.04 1002.5C1262.75 994.729 1264 991.894 1264 991.206C1264 990.777 1264.58 988.699 1265.29 986.588C1266.01 984.477 1266.78 981.737 1267.02 980.5C1267.26 979.262 1267.69 977.237 1267.99 976C1269.28 970.685 1269.7 964.499 1269.7 951C1269.7 936.334 1269.22 929.915 1267.82 926C1267.38 924.762 1267.01 923.075 1267.01 922.25C1267 920.431 1264.31 911.411 1261.03 902.25C1259.12 896.913 1249.22 875.798 1247.2 872.761C1246.63 871.893 1246.01 870.604 1245.83 869.898C1245.65 869.191 1244.61 867.414 1243.51 865.949C1242.41 864.484 1241.26 862.53 1240.95 861.606C1240.65 860.682 1239.47 858.499 1238.32 856.756C1237.18 855.012 1235.58 852.417 1234.75 850.99C1233.93 849.562 1232.58 847.453 1231.75 846.303C1230.93 845.152 1229.82 843.432 1229.29 842.48C1228.77 841.529 1227.41 839.512 1226.27 838C1225.14 836.487 1223.14 833.518 1221.82 831.401C1220.51 829.284 1218.54 826.753 1217.46 825.776C1215.79 824.265 1215.14 824 1213.12 824.003C1210.32 824.007 1208.45 825.084 1206.27 827.951C1205.43 829.046 1202.15 832.824 1198.97 836.346C1195.79 839.868 1191.31 845 1189.01 847.75C1176.74 862.426 1165 874.279 1158.95 878.102C1158.24 878.553 1157.39 879.567 1157.06 880.355C1156.73 881.144 1155.94 882.117 1155.29 882.519C1154.64 882.921 1150.77 886.315 1146.68 890.06C1142.59 893.805 1136.44 899.398 1133 902.489C1129.56 905.579 1125.06 909.94 1123 912.179C1119.39 916.092 1112.6 922.558 1103.77 930.5C1085.51 946.919 1082.72 949.294 1077.02 953.25C1075.04 954.625 1072.57 956.537 1071.54 957.5C1070.51 958.462 1068.12 960.15 1066.23 961.25C1064.34 962.35 1062 964.053 1061.02 965.034C1060.05 966.016 1057.61 967.68 1055.6 968.733C1053.6 969.785 1051.73 971.063 1051.46 971.571C1051.19 972.08 1050.11 972.933 1049.06 973.467C1048.02 974.001 1045.83 975.545 1044.21 976.899C1042.58 978.252 1040.58 979.705 1039.75 980.129C1038.93 980.553 1034.2 983.584 1029.25 986.864C1024.3 990.145 1018.62 993.683 1016.63 994.726C1014.63 995.77 1013 996.809 1013 997.037C1013 997.431 1007.53 1000.47 999.5 1004.54C997.438 1005.59 995.075 1006.79 994.25 1007.22C990.311 1009.25 978.292 1014.87 977.135 1015.22C976.522 1015.41 974.735 1016.33 973.164 1017.28C971.594 1018.23 969.958 1019 969.53 1019.01C969.101 1019.01 967.738 1019.61 966.5 1020.34C960.585 1023.82 950.667 1029.13 946.966 1030.8C946.297 1031.1 945.075 1031.7 944.25 1032.14C943.425 1032.57 941.288 1033.52 939.5 1034.24C937.713 1034.96 935.8 1035.8 935.25 1036.11C934.7 1036.42 932.225 1037.39 929.75 1038.28C927.275 1039.17 924.016 1040.37 922.507 1040.95C920.999 1041.53 919.471 1042 919.111 1042C918.752 1042 917.015 1042.67 915.25 1043.5C913.486 1044.32 911.636 1045 911.139 1045C910.642 1045 909.002 1045.47 907.493 1046.05C900.933 1048.57 896.453 1050.19 892.25 1051.59C889.775 1052.4 887.075 1053.31 886.25 1053.59C885.425 1053.88 883.4 1054.55 881.75 1055.09C876.903 1056.69 875.884 1057.04 873.257 1058.05C871.886 1058.57 870.199 1059 869.507 1059C868.816 1059 867.575 1059.37 866.75 1059.81C865.098 1060.7 862.927 1061.36 859.5 1062.01C852.11 1063.41 852.124 1063.4 848.408 1068.9C845.968 1072.5 842.5 1079.19 842.5 1080.29C842.5 1080.6 840.419 1083.52 837.875 1086.78C832.494 1093.68 828.092 1097.4 824.108 1098.42C821.603 1099.07 821.396 1099.04 818.572 1097.67C815.722 1096.29 812.99 1093.62 809.352 1088.66C808.583 1087.61 806.846 1085.29 805.493 1083.5C803.284 1080.58 801.271 1077.63 798.238 1072.86C796.475 1070.09 794.298 1069 790.551 1069C788.736 1069 786.436 1069.23 785.44 1069.51C784.445 1069.78 779.608 1070.11 774.69 1070.23C769.773 1070.35 763.725 1070.63 761.25 1070.85C758.775 1071.07 750.9 1071.07 743.75 1070.84C732.547 1070.49 729.092 1070.42 724.125 1070.42C720.563 1070.43 709.065 1070 706 1069.75C695.836 1068.93 684.936 1067.88 677.75 1067.04C675.275 1066.75 671.45 1066.31 669.25 1066.05C667.05 1065.79 664.238 1065.33 663 1065.03C661.763 1064.72 659.513 1064.28 658 1064.03C656.488 1063.79 653.788 1063.21 652 1062.74C650.213 1062.28 647.963 1061.71 647 1061.49C646.038 1061.26 644.013 1060.69 642.5 1060.23C640.988 1059.76 637.5 1059.17 634.75 1058.92C628.37 1058.35 623.845 1057.73 621 1057.03C619.763 1056.72 617.513 1056.28 616 1056.03C612.698 1055.5 607.8 1054.26 603.875 1052.96C602.294 1052.43 599.706 1051.57 598.125 1051.04C596.544 1050.52 593.9 1049.64 592.25 1049.1C590.6 1048.55 588.519 1047.86 587.625 1047.55C586.731 1047.25 585.269 1046.75 584.375 1046.45C583.481 1046.15 581.738 1045.5 580.5 1045C578.17 1044.06 577.299 1043.75 572.25 1042.09C570.6 1041.55 568.575 1040.88 567.75 1040.59C566.925 1040.31 564.788 1039.59 563 1039C552.375 1035.46 549.222 1034.22 540.5 1030.14C538.438 1029.17 535.482 1027.98 533.931 1027.48C531.429 1026.68 529.28 1025.66 525.807 1023.63C525.226 1023.29 524.36 1023.01 523.883 1023.01C523.405 1023 521.043 1022.07 518.633 1020.94C516.222 1019.8 510.875 1017.3 506.75 1015.37C502.625 1013.44 498.913 1011.67 498.5 1011.43C494.694 1009.28 493.842 1009 491.213 1009C487.558 1009 485.285 1010.28 483 1013.62C481.021 1016.52 474.758 1022.08 471.75 1023.62C470.65 1024.18 468.288 1026.1 466.5 1027.89C464.713 1029.67 462.368 1031.69 461.289 1032.38C458.869 1033.91 458.768 1033.99 456 1036.39C454.763 1037.46 450.6 1040.43 446.75 1043C442.9 1045.56 439.188 1048.15 438.5 1048.75C437.813 1049.34 436.294 1050.09 435.125 1050.41C433.957 1050.74 432.116 1051.26 431.036 1051.57C429.569 1051.99 428.5 1051.99 426.814 1051.57C425.573 1051.26 423.758 1051 422.78 1051C419.337 1051 413.825 1045.92 412.925 1041.91C412.68 1040.82 411.986 1039.26 411.383 1038.45C410.148 1036.78 410.114 1036.54 407.997 1014.5C407.477 1009.09 406.456 991.228 406.511 988.5C406.765 975.874 407.04 970.033 407.537 966.69C407.869 964.457 407.979 961.984 407.781 961.196C407.402 959.685 403.111 955.284 399.546 952.75C398.385 951.925 396.248 950.237 394.795 949C393.343 947.762 390.963 945.85 389.506 944.75C386.125 942.197 371.21 928.987 367.633 925.377C367.019 924.757 361.031 918.625 354.327 911.75C335.318 892.257 330.794 887.056 323.108 875.857C321.381 873.339 319.55 870.822 319.041 870.264C318.532 869.706 317.964 868.749 317.778 868.138C317.221 866.299 315.111 865 312.684 865C310.872 865 310.157 865.312 308.459 866.846C307.335 867.862 305.751 869.659 304.939 870.839C303.308 873.209 297.895 877.945 294.235 880.203C292.939 881.002 290.838 882.524 289.565 883.584C288.292 884.645 285.939 886.578 284.336 887.881C282.734 889.184 280.259 891.306 278.836 892.596C273.512 897.426 269.467 900.378 264 903.425C260.883 905.163 254.333 910.32 250.823 913.802C246.295 918.294 239.496 926.056 238.669 927.678C238.229 928.543 236.942 930.304 235.809 931.592C234.677 932.88 233.01 934.905 232.105 936.092C231.201 937.279 229.738 939.194 228.855 940.348C227.972 941.502 226.543 943.415 225.679 944.598C223.786 947.191 219 956.652 219 957.8C219 958.25 218.565 959.998 218.035 961.684C216.102 967.823 215.888 968.909 216.184 971.06C216.35 972.264 216.682 974.937 216.922 977C217.163 979.062 217.705 981.537 218.127 982.5C218.549 983.462 219.722 986.162 220.734 988.5C221.746 990.837 222.787 993.087 223.049 993.5C223.311 993.912 224.21 995.712 225.048 997.5C225.886 999.287 226.78 1001.09 227.034 1001.5C227.288 1001.91 228.971 1005.06 230.773 1008.5C235.004 1016.57 237.819 1021.48 238.936 1022.74C239.426 1023.3 241.115 1025.66 242.688 1028C244.261 1030.34 246.218 1033.15 247.036 1034.25C249.558 1037.64 253 1044.83 253 1046.71C253 1047.66 253.243 1049.07 253.539 1049.84C253.968 1050.96 253.87 1051.91 253.062 1054.5C252.503 1056.29 251.918 1058.37 251.763 1059.13C251.314 1061.31 245.26 1067.36 241.773 1069.1C240.11 1069.94 238.445 1070.86 238.073 1071.16C237.7 1071.46 236.013 1072.21 234.323 1072.81C232.633 1073.42 229.562 1074.53 227.5 1075.28C223.661 1076.68 222.724 1076.9 214.5 1078.27C206.93 1079.53 186.003 1078.81 177.25 1076.99C175.875 1076.7 172.95 1076.25 170.75 1075.99C165.85 1075.4 161.896 1074.73 159.25 1074.06C155.748 1073.16 153.306 1072.56 151.25 1072.08C148.813 1071.52 139.849 1068.71 133.75 1066.59C131.529 1065.82 122.588 1063.16 120 1062.51C118.762 1062.19 117.187 1061.75 116.5 1061.52C115.812 1061.28 114.575 1060.86 113.75 1060.58C112.925 1060.3 110.225 1059.4 107.75 1058.58C100.966 1056.34 99.3645 1055.69 94.494 1053.25C92.033 1052.01 89.8145 1051 89.564 1051C89.0615 1051 73.987 1040.92 70.663 1038.36C65.8755 1034.67 64.5185 1033.56 59.815 1029.51C55.0715 1025.42 45.4255 1015.01 41.25 1009.48C40.15 1008.02 38.4405 1005.91 37.4515 1004.79C36.462 1003.67 34.842 1001.51 33.851 1000C32.8605 998.487 31.3625 996.284 30.5225 995.104C29.683 993.924 28.4165 991.815 27.7085 990.418C27.0005 989.02 25.6515 986.782 24.7105 985.444C23.7695 984.105 23 982.775 23 982.488C23 981.769 20.789 977.47 19.261 975.219C18.5675 974.196 18 972.822 18 972.163C18 971.505 17.4005 969.793 16.668 968.358C15.936 966.924 15.138 964.85 14.8955 963.75C14.653 962.65 14.2775 960.962 14.0615 960C13.8455 959.037 13.2935 957.53 12.8345 956.65C12.3755 955.769 11.9965 954.419 11.9925 953.65C11.9885 952.88 11.6175 951.237 11.1675 950C10.7175 948.762 10.1575 946.512 9.92247 945C9.68797 943.487 9.26447 941.012 8.98197 939.5C8.45247 936.664 8.09247 933.596 6.92797 922C6.02097 912.971 6.02247 879.507 6.92997 871.25C7.29247 867.95 7.77947 863.45 8.01197 861.25C8.24497 859.05 8.68697 855.787 8.99497 854C9.30247 852.212 9.76297 848.95 10.0175 846.75C10.5605 842.056 11.2155 838.132 11.978 835C12.2795 833.762 12.7245 831.512 12.9675 830C13.6925 825.481 16.3735 815.851 19.578 806.25C20.4045 803.775 21.3055 800.85 21.5805 799.75C21.8555 798.65 22.3115 797.075 22.594 796.25C26.3115 785.389 27.0565 783.549 31.553 774.119C32.899 771.297 34 768.684 34 768.314C34 767.943 34.5675 766.803 35.261 765.781C35.9545 764.759 37.378 762.309 38.424 760.336C40.2615 756.871 41.7565 754.471 44.123 751.186C44.743 750.325 46.7735 747.4 48.6355 744.686C50.4975 741.971 52.8025 738.737 53.758 737.5C54.7135 736.262 56.064 734.462 56.7595 733.5C58.0035 731.779 59.301 730.045 62.2285 726.194C63.0415 725.125 64.954 722.871 66.4785 721.186C68.0025 719.501 71.275 715.817 73.75 712.999C78.192 707.942 83.178 702.423 90.5 694.461C92.5625 692.219 94.5875 689.872 95 689.247C95.8535 687.954 108.729 674.28 114.765 668.256C121.672 661.363 135.036 649.48 139.514 646.25C140.658 645.425 142.894 643.549 144.484 642.081C146.074 640.613 147.937 639.038 148.624 638.581C151.983 636.348 152.923 635.651 155.102 633.775C156.396 632.661 158.533 630.897 159.852 629.854C167.735 623.622 168.813 622.702 181.059 611.75C185.95 607.375 192.69 600.889 195.848 597.518C197.485 595.771 216.263 577.701 218.25 575.962C219.625 574.758 223.01 571.63 225.772 569.011C228.533 566.393 232.324 563.012 234.195 561.5C236.066 559.987 239.351 557.093 241.497 555.068C243.642 553.044 245.949 551.019 246.624 550.568C247.298 550.118 249.479 548.287 251.47 546.5C260.065 538.784 261.966 537.141 264.492 535.25C265.961 534.15 268.454 532.125 270.03 530.75C271.606 529.375 274.277 527.045 275.966 525.573C277.655 524.101 280.21 522.045 281.643 521.003C286.073 517.784 290.899 513.503 297.201 507.201C300.528 503.875 303.569 500.837 303.96 500.451C304.35 500.065 307.27 497.05 310.449 493.75C313.628 490.45 320.284 483.573 325.24 478.468C330.195 473.362 336.05 467.097 338.25 464.546C343.718 458.204 350.723 450.407 357 443.676C366.553 433.433 367.363 432.208 368.039 427C368.359 424.536 368.865 422.352 370.643 415.75C370.939 414.65 371.816 412.463 372.591 410.89C373.366 409.316 374 407.561 374 406.989C374 406.418 374.33 405.314 374.732 404.536C375.743 402.58 376.984 398.928 376.993 397.882C376.997 397.405 377.874 395.155 378.943 392.882C383.133 383.967 385.017 379.647 385.761 377.25C386.187 375.875 387.082 373.85 387.75 372.75C388.418 371.65 389.396 369.85 389.925 368.75C390.454 367.65 391.263 365.962 391.724 365C392.184 364.037 393.329 361.9 394.267 360.25C395.205 358.6 395.978 356.9 395.986 356.472C395.999 355.771 397.061 354.054 401.38 347.75C402.709 345.81 402.75 345.544 402.75 338.927C402.75 333.337 402.603 331.937 401.936 331.177C401.155 330.288 400.938 329.508 400.074 324.5C399.861 323.262 399.307 321.53 398.843 320.65C398.38 319.769 398 318.244 398 317.259C398 316.274 397.636 314.632 397.19 313.609C396.286 311.535 395.658 309.088 394.981 305C394.731 303.487 394.281 301.237 393.981 300C393.236 296.922 392.416 291.912 392.507 291C392.549 290.587 392.659 287.82 392.751 284.85C392.844 281.88 393.163 278.753 393.46 277.901C393.757 277.049 394 275.697 394 274.898C394 270.532 400.239 256.4 404.5 251.113C406.554 248.565 408.831 245.333 409.511 244C410.18 242.688 411.287 241.233 415 236.788C416.238 235.306 417.967 233.117 418.843 231.922C421.259 228.626 430.064 219.771 436.452 214.212C439.588 211.483 443.863 207.67 445.952 205.739C454.289 198.033 457.87 195.642 462.51 194.681C466.075 193.943 473.015 193.981 477.886 194.764C482.631 195.527 485.167 193.926 487.22 188.875C488.25 186.341 491.865 180.635 495.399 175.966C496.142 174.984 497.621 173.008 498.684 171.574C500.819 168.696 506.073 164.676 508.617 163.973C509.515 163.725 511.48 162.73 512.983 161.761C515.08 160.41 516.243 160 517.983 159.997C519.23 159.996 521.136 159.749 522.219 159.448C523.594 159.066 524.724 159.057 525.969 159.416C526.948 159.699 529.038 160.303 530.611 160.758C532.185 161.212 533.985 161.984 534.611 162.472C540.308 166.91 543.971 165.768 547.793 158.361C549.102 155.825 550.906 152.706 551.802 151.43C552.698 150.154 554.117 147.791 554.956 146.18C557.277 141.722 565.083 131 566.009 131C566.272 131 568.466 129.144 570.885 126.875C573.304 124.606 576.48 121.85 577.943 120.75C579.406 119.65 581.732 117.738 583.111 116.5C584.49 115.263 586.661 113.645 587.935 112.906C593.075 109.921 604.156 104.445 607.108 103.432C608.836 102.838 610.782 101.939 611.433 101.434C612.083 100.929 613.321 100.303 614.183 100.044C616.396 99.3785 621.302 97.281 622.089 96.6635C622.453 96.378 623.2 96.017 623.75 95.8615C625.327 95.4145 630.36 93.234 631.089 92.681C631.84 92.112 634.92 91.1895 637.467 90.7705C638.411 90.615 639.536 90.1775 639.967 89.798C640.397 89.419 641.65 88.983 642.75 88.8295C645.316 88.472 649.14 87.7155 652 86.9995C655.517 86.119 659.814 85.494 665.25 85.071C671.208 84.607 672.915 83.835 674.694 80.8005C675.413 79.5725 677.035 77.7085 678.297 76.659C679.559 75.609 681.904 73.625 683.509 72.25C685.113 70.875 687.348 69.075 688.475 68.25C689.601 67.425 691.405 66.075 692.482 65.25C693.559 64.425 695.27 63.1875 696.284 62.5C697.297 61.8125 699.635 59.9 701.479 58.25C703.322 56.6 705.897 54.4625 707.2 53.5C708.503 52.5375 710.659 50.8175 711.991 49.678C713.324 48.5385 715.277 47.3285 716.332 46.9895C717.387 46.651 718.588 46.0905 719 45.745C720.3 44.656 723.917 43 724.997 43C725.567 43 727.144 42.437 728.502 41.749C731.001 40.483 734.014 39.393 736.75 38.766C737.575 38.577 738.615 38.093 739.062 37.691C739.987 36.8575 744.82 35 746.064 35C746.519 35 747.872 34.555 749.071 34.011C750.475 33.3735 752.35 33.018 754.343 33.011C756.044 33.005 757.977 32.794 758.639 32.5425C761.896 31.304 773.675 37.3525 784.285 45.7105C787.631 48.3465 788.345 48.6965 790.799 48.9C793.354 49.1115 793.763 48.9865 796.396 47.189C797.959 46.1225 800.028 44.5485 800.994 43.691C801.96 42.8335 803.65 41.657 804.75 41.076C805.85 40.495 807.65 39.346 808.75 38.5225C809.85 37.699 812.056 36.1755 813.652 35.1375C815.248 34.0995 818.053 32.2725 819.886 31.0785C821.718 29.884 824.321 28.3475 825.67 27.664C827.019 26.9805 829.196 25.667 830.507 24.745C831.818 23.8235 834.209 22.3605 835.821 21.4935C841.592 18.389 845.379 16.2405 846.059 15.686C846.439 15.376 847.313 14.9555 848 14.752C848.688 14.5485 849.588 14.111 850 13.7795C851.536 12.5465 859.555 11.03 864.885 10.965C866.461 10.9455 868.2 10.7365 868.75 10.5C869.3 10.2635 870.088 10.196 870.5 10.35C870.913 10.5045 872.488 10.7355 874 10.864Z" fill="black"/>
        </svg>